<svg xmlns="http://www.w3.org/2000/svg" version="1.1" xmlns:xlink="http://www.w3.org/1999/xlink" xmlns:svgjs="http://svgjs.com/svgjs" width="141.73" height="141.73"><svg version="1.1" id="SvgjsSvg1000" xmlns="http://www.w3.org/2000/svg" xmlns:xlink="http://www.w3.org/1999/xlink" x="0px" y="0px" viewBox="0 0 141.73 141.73" style="enable-background:new 0 0 141.73 141.73;" xml:space="preserve">
<style type="text/css">
	.st0{fill:#FFFFFF;}
</style>
<path class="st0" d="M127.51,23.35v44.74h-0.26c-4.09-6.26-12.4-10.23-21.09-10.23c-18.57,0-30.69,13.55-30.8,31.57
	c-3.05-2.17-7.02-3.53-11.45-4.61c-5.11-1.15-15.47-2.17-15.47-9.46c0-4.35,4.73-6.77,10.1-6.77c5.75,0,9.71,2.68,12.4,6.01
	l8.95-6.77c-4.35-7.16-12.65-9.97-20.71-9.97c-0.19,0-0.39,0.01-0.58,0.01l0.01,0l-31.66,0V43.93c0-8.44,1.41-13.68,9.84-13.68
	c2.3,0,4.35,0.26,6.52,1.15l1.28-10.23c-3.2-0.77-6.01-0.89-8.56-0.89c-15.08,0-20.71,7.92-20.71,24.03v13.55H2.3v9.97h13.04v52.13
	h11.5V67.83l11.6,0c-1.42,2.44-2.25,5.32-2.25,8.69c0,11.63,8.69,14.83,18.53,17.25c4.98,1.15,14.57,2.43,14.57,9.33
	c0,5.24-6.39,7.67-12.27,7.67c-6.65,0-10.99-3.45-14.7-7.16l-8.69,7.16c6.01,8.18,13.42,10.74,23.39,10.74
	c10.1,0,20.55-3.79,23.63-13.12c5.25,8.01,14.13,13.12,25.51,13.12c8.18,0,16.62-3.71,21.09-10.23h0.26v8.69h11.5V23.35H127.51z
	 M107.57,110.77c-12.27,0-19.94-8.82-19.94-21.09c0-12.27,7.67-21.09,19.94-21.09c12.27,0,19.94,8.82,19.94,21.09
	C127.51,101.95,119.85,110.77,107.57,110.77z"></path>
</svg><style>@media (prefers-color-scheme: light) { :root { filter: contrast(1) brightness(0.1); } }
@media (prefers-color-scheme: dark) { :root { filter: none; } }
</style></svg>